# Blender v3.3.1 OBJ File: 'something_new.blend'
# www.blender.org
mtllib something_new.mtl
o my_base
v 0.353553 0.000000 0.353553
v 30.463545 0.000000 0.187420
v 0.460302 0.000000 -29.195250
v 0.353553 96.000000 0.353553
v 30.463545 96.000000 0.187420
v 0.460302 96.000000 -29.195250
v 0.000000 0.000000 0.000000
v 30.000000 0.000000 0.000000
v 0.000000 0.000000 -29.000000
v 0.000000 96.000000 0.000000
v 30.000000 96.000000 0.000000
v 0.000000 96.000000 -29.000000
v 28.571934 6.000000 -1.380463
v 28.715469 6.000000 -1.524499
v 28.571934 91.430191 -1.380463
v 28.571934 94.000000 -1.380463
v 28.715469 94.000000 -1.524502
v 9.157004 94.000000 -20.148230
v 9.424400 94.000000 -20.416561
v 9.157004 6.000000 -20.148230
v 9.424400 6.000000 -20.416561
vt 0.000000 0.000000
vt 0.000000 0.000000
vt 0.000000 0.000000
vt 0.000000 0.000000
vt 0.000000 0.000000
vt 0.000000 0.000000
vt 0.000000 0.000000
vt 0.000000 0.000000
vt 0.000000 0.000000
vt 0.000000 0.000000
vt 0.000000 0.000000
vt 0.000000 0.000000
vt 0.000000 0.000000
vt 0.000000 0.000000
vt 0.000000 0.000000
vt 0.000000 0.000000
vt 0.000000 0.000000
vt 0.000000 0.000000
vt 0.375000 0.535436
vt 0.375000 0.586272
vt 0.617699 0.586273
vt 0.625000 0.586272
vt 0.625000 0.535436
vt 0.375000 0.061105
vt 0.375000 0.155809
vt 0.625000 0.155809
vt 0.625000 0.061105
vt 0.000000 0.000000
vt 0.125000 0.594191
vt 0.125000 0.688895
vt 0.875000 0.688895
vt 0.875000 0.594191
vt 0.000000 0.000000
vt 0.000000 0.000000
vn 1.0000 0.0000 0.0036
vn 0.6997 0.0000 -0.7145
vn 0.0055 0.0000 1.0000
vn -1.0000 0.0000 0.0000
vn -0.6950 0.0000 0.7190
vn 0.0000 0.0000 -1.0000
vn 0.0000 -1.0000 0.0000
vn 0.0000 1.0000 0.0000
vn -0.7083 -0.0000 -0.7059
vn 0.7083 0.0000 0.7059
usemtl None
s off
f 1/1/1 3/2/1 6/3/1 4/4/1
f 2/5/2 14/6/2 17/7/2 19/8/2 6/3/2 5/9/2
f 1/1/3 2/5/3 5/9/3 4/4/3
f 7/10/4 10/11/4 12/12/4 9/13/4
f 8/14/5 11/15/5 15/16/5 13/17/5 20/18/5 9/13/5
f 7/10/6 10/11/6 11/15/6 8/14/6
f 2/5/7 1/1/7 7/10/7 8/14/7
f 3/2/7 2/5/7 8/14/7 9/13/7
f 3/2/7 1/1/7 7/10/7 9/13/7
f 4/4/8 5/9/8 11/15/8 10/11/8
f 5/9/8 6/3/8 12/12/8 11/15/8
f 4/4/8 6/3/8 12/12/8 10/11/8
f 14/19/9 13/20/9 15/21/9 16/22/9 17/23/9
f 20/24/10 21/25/10 19/26/10 18/27/10
f 6/3/2 19/8/2 21/28/2 14/6/2 2/5/2 3/2/2
f 21/29/8 20/30/8 13/20/8 14/19/8
f 17/23/7 16/22/7 18/31/7 19/32/7
f 9/13/5 20/18/5 18/33/5 16/34/5 15/16/5 11/15/5 12/12/5
o upright_Cube.001
v 0.450000 0.000000 -21.750000
v 0.450000 96.000000 -21.750000
v 0.450000 0.000000 -22.250000
v 0.450000 96.000000 -22.250000
v 7.050000 0.000000 -21.750000
v 7.050000 96.000000 -21.750000
v 7.050000 0.000000 -22.250000
v 7.050000 96.000000 -22.250000
vt 0.375000 0.000000
vt 0.625000 0.000000
vt 0.625000 0.250000
vt 0.375000 0.250000
vt 0.625000 0.500000
vt 0.375000 0.500000
vt 0.625000 0.750000
vt 0.375000 0.750000
vt 0.625000 1.000000
vt 0.375000 1.000000
vt 0.125000 0.500000
vt 0.125000 0.750000
vt 0.875000 0.500000
vt 0.875000 0.750000
vn -1.0000 0.0000 0.0000
vn 0.0000 0.0000 -1.0000
vn 1.0000 0.0000 0.0000
vn 0.0000 0.0000 1.0000
vn 0.0000 -1.0000 0.0000
vn 0.0000 1.0000 0.0000
usemtl None
s off
f 22/35/11 23/36/11 25/37/11 24/38/11
f 24/38/12 25/37/12 29/39/12 28/40/12
f 28/40/13 29/39/13 27/41/13 26/42/13
f 26/42/14 27/41/14 23/43/14 22/44/14
f 24/45/15 28/40/15 26/42/15 22/46/15
f 29/39/16 25/47/16 23/48/16 27/41/16
o shelf_1
v 40.000000 6.000000 -10.000000
v 70.000000 6.000000 -10.000000
v 46.599998 6.000000 -32.000000
v 40.000000 6.000000 -32.000000
v 40.000000 6.500000 -10.000000
v 70.000000 6.500000 -10.000000
v 46.599998 6.500000 -32.000000
v 40.000000 6.500000 -32.000000
v 40.288673 6.288675 -10.288675
v 69.610611 6.273076 -10.154301
v 46.457375 6.316413 -31.640081
v 40.288673 6.288675 -31.711325
v 40.288673 6.211325 -10.288675
v 69.610611 6.226924 -10.154301
v 46.457375 6.183587 -31.640081
v 40.288673 6.211325 -31.711325
vn 0.0000 -1.0000 0.0000
vn 0.0000 1.0000 -0.0000
vn 0.6850 0.0000 -0.7286
vn 0.0000 0.0000 -1.0000
vn -1.0000 0.0000 0.0000
vn 0.0000 0.0000 1.0000
vn -0.0003 1.0000 0.0012
vn -0.0003 -1.0000 0.0012
vn 0.6802 0.0000 -0.7330
vn 0.0115 0.0000 -0.9999
vn -0.0046 0.0000 1.0000
usemtl None
s off
f 30//17 33//17 32//17 31//17
f 34//18 35//18 36//18 37//18
f 31//19 32//19 36//19 35//19
f 32//20 33//20 37//20 36//20
f 33//21 30//21 34//21 37//21
f 30//22 31//22 35//22 34//22
f 38//23 39//23 40//23 41//23
f 42//24 45//24 44//24 43//24
f 39//25 43//25 44//25 40//25
f 40//26 44//26 45//26 41//26
f 41//21 45//21 42//21 38//21
f 38//27 42//27 43//27 39//27
